<svg viewBox="0 0 800 450" xmlns="http://www.w3.org/2000/svg">
<rect width="800" height="450" fill="#0B1120"/>
<defs><pattern id="g" width="40" height="40" patternUnits="userSpaceOnUse"><path d="M40 0L0 0 0 40" fill="none" stroke="rgba(59,151,211,0.06)" stroke-width="1"/></pattern></defs><rect width="800" height="450" fill="url(#g)"/>

<rect x="50" y="140" width="130" height="80" rx="8" fill="#3b97d333" stroke="#3b97d3" stroke-width="2"/>
<text x="115" y="177" text-anchor="middle" fill="#f8fafc" font-family="Space Grotesk,system-ui" font-size="14" font-weight="700">OLT</text>
<text x="115" y="197" text-anchor="middle" fill="#94a3b8" font-family="system-ui" font-size="10">Opérateur</text>
<line x1="180" y1="180" x2="290" y2="150" stroke="#3b97d3" stroke-width="2"/>
<line x1="180" y1="180" x2="290" y2="180" stroke="#3b97d3" stroke-width="2"/>
<line x1="180" y1="180" x2="290" y2="210" stroke="#3b97d3" stroke-width="2"/>
<rect x="290" y="130" width="100" height="100" rx="8" fill="#3b97d322" stroke="#3b97d388" stroke-width="1.5"/>
<text x="340" y="177" text-anchor="middle" fill="#f8fafc" font-family="Space Grotesk,system-ui" font-size="12" font-weight="700">Splitter</text>
<text x="340" y="195" text-anchor="middle" fill="#94a3b8" font-family="system-ui" font-size="10">1→32</text>
<line x1="390" y1="150" x2="500" y2="120" stroke="#3b97d3" stroke-width="1.5"/>
<line x1="390" y1="155" x2="500" y2="140" stroke="#3b97d3" stroke-width="1.5"/>
<line x1="390" y1="180" x2="500" y2="180" stroke="#3b97d3" stroke-width="1.5"/>
<line x1="390" y1="205" x2="500" y2="220" stroke="#3b97d3" stroke-width="1.5"/>
<line x1="390" y1="210" x2="500" y2="240" stroke="#3b97d3" stroke-width="1.5"/>
<rect x="500" y="100" width="90" height="50" rx="6" fill="#3b97d322" stroke="#3b97d366" stroke-width="1.5"/>
<rect x="500" y="160" width="90" height="50" rx="6" fill="#3b97d322" stroke="#3b97d366" stroke-width="1.5"/>
<rect x="500" y="220" width="90" height="50" rx="6" fill="#3b97d322" stroke="#3b97d366" stroke-width="1.5"/>
<text x="545" y="130" text-anchor="middle" fill="#f8fafc" font-family="system-ui" font-size="11" font-weight="600">ONU</text>
<text x="545" y="190" text-anchor="middle" fill="#f8fafc" font-family="system-ui" font-size="11" font-weight="600">ONU</text>
<text x="545" y="250" text-anchor="middle" fill="#f8fafc" font-family="system-ui" font-size="11" font-weight="600">ONU</text>
<line x1="590" y1="125" x2="660" y2="125" stroke="#3b97d388" stroke-width="1.5"/>
<line x1="590" y1="185" x2="660" y2="185" stroke="#3b97d388" stroke-width="1.5"/>
<line x1="590" y1="245" x2="660" y2="245" stroke="#3b97d388" stroke-width="1.5"/>
<rect x="660" y="105" width="80" height="40" rx="6" fill="#F59E0B22" stroke="#F59E0B66" stroke-width="1.5"/>
<rect x="660" y="165" width="80" height="40" rx="6" fill="#F59E0B22" stroke="#F59E0B66" stroke-width="1.5"/>
<rect x="660" y="225" width="80" height="40" rx="6" fill="#F59E0B22" stroke="#F59E0B66" stroke-width="1.5"/>
<text x="700" y="130" text-anchor="middle" fill="#F59E0B" font-family="system-ui" font-size="10" font-weight="600">Box/Router</text>
<text x="700" y="190" text-anchor="middle" fill="#F59E0B" font-family="system-ui" font-size="10" font-weight="600">Box/Router</text>
<text x="700" y="250" text-anchor="middle" fill="#F59E0B" font-family="system-ui" font-size="10" font-weight="600">Box/Router</text>
<text x="400" y="410" text-anchor="middle" fill="#f8fafc" font-family="Space Grotesk,system-ui" font-size="22" font-weight="700">Équipements actifs : OLT, ONU, routeurs</text>

</svg>